# xmcd
#
# Track frame offsets:
#	150
#	12547
#	30305
#	40582
#	59087
#	76702
#	87332
#	97545
#	106662
#	115390
#	132007
#	149480
#	165127
#	191592
#	201792
#	214782
#	227955
#	241067
#
# Disc length: 3360
#
# Revision: 2
# Processed by: cddbd v1.5.1PL0 Copyright (c) Steve Scherf et al.
# Submitted via: CDex 1.50beta9
# Normalized: r1:DSETVAR1,TDELIM( - )
#
DISCID=dd0d1e12
DTITLE=Various Artist - le coeur qui jazze
DYEAR=1900
DGENRE=Jazz
TTITLE0=FRANCE GALL - Le Coeur Qui Jazze
TTITLE1=MICHEL LEGRAND - Marins, Amis, Amant ou Maris
TTITLE2=ASTRUD GILBERTO - Aruanda
TTITLE3=META ROOS and NIPPE SYLVENS BAND - Here We Are Falling In Love
TTITLE4=MILT JACKSON - Autumn Leaves
TTITLE5=JON HENDRICKS - Jive Samba
TTITLE6=CLAUDIA - Panema Leblon
TTITLE7=ROBERTO MENESCAL - Five Four
TTITLE8=LENY ANDRADE - Samba Em Paris
TTITLE9=DANCER'S INFERNO - Sombre Guitar
TTITLE10=CHARLY ANTOLINI - Uela Uela
TTITLE11=BIG JIM SULLIVAN - Sunshine Superman
TTITLE12=RANDY WESTON - In Memory Of
TTITLE13=THE MAD DOCTORS - The Mad Mad Doctors
TTITLE14=ELIS REGINA - Ladeira De Preguica
TTITLE15=WALTER KUBICZEC - Exotica
TTITLE16=THE SILHOUETTES - Young Blood
TTITLE17=THE SILHOUETTES - Conversations
EXTD=
EXTT0=
EXTT1=
EXTT2=
EXTT3=
EXTT4=
EXTT5=
EXTT6=
EXTT7=
EXTT8=
EXTT9=
EXTT10=
EXTT11=
EXTT12=
EXTT13=
EXTT14=
EXTT15=
EXTT16=
EXTT17=
PLAYORDER=
